<svg display="none" xmlns="https://www.w3.org/2000/svg" >
    <symbol viewBox="0 0 7 15" id="facebook"  fill="none" xmlns="http://www.w3.org/2000/svg">
        <path d="M7.65708 12.3648H11.3793L11.9637 8.56055H7.65632V6.48134C7.65632 4.90099 8.16957 3.49962 9.63891 3.49962H12V0.179741C11.5852 0.123382 10.7078 0 9.04996 0C5.58819 0 3.55867 1.8393 3.55867 6.0297V8.56055H0V12.3648H3.55867V22.821C4.26344 22.9276 4.97729 23 5.71007 23C6.37245 23 7.01893 22.9391 7.65708 22.8522V12.3648Z" fill="white" />
    </symbol>
    <symbol viewBox="0 0 20 20" id="instagram" fill="none" xmlns="http://www.w3.org/2000/svg">
        <path d="M10 1.80723C12.6506 1.80723 13.0121 1.80723 14.0964 1.80723C15.0602 1.80723 15.5422 2.04819 15.9036 2.16868C16.3855 2.40964 16.747 2.53012 17.1084 2.89157C17.4699 3.25301 17.7108 3.61446 17.8313 4.09639C17.9518 4.45783 18.0723 4.93976 18.1928 5.90362C18.1928 6.98795 18.1928 7.22892 18.1928 10C18.1928 12.7711 18.1928 13.0121 18.1928 14.0964C18.1928 15.0602 17.9518 15.5422 17.8313 15.9036C17.5904 16.3855 17.4699 16.747 17.1084 17.1084C16.747 17.4699 16.3855 17.7108 15.9036 17.8313C15.5422 17.9518 15.0602 18.0723 14.0964 18.1928C13.0121 18.1928 12.7711 18.1928 10 18.1928C7.22892 18.1928 6.98795 18.1928 5.90362 18.1928C4.93976 18.1928 4.45783 17.9518 4.09639 17.8313C3.61446 17.5904 3.25301 17.4699 2.89157 17.1084C2.53012 16.747 2.28916 16.3855 2.16868 15.9036C2.04819 15.5422 1.92771 15.0602 1.80723 14.0964C1.80723 13.0121 1.80723 12.7711 1.80723 10C1.80723 7.22892 1.80723 6.98795 1.80723 5.90362C1.80723 4.93976 2.04819 4.45783 2.16868 4.09639C2.40964 3.61446 2.53012 3.25301 2.89157 2.89157C3.25301 2.53012 3.61446 2.28916 4.09639 2.16868C4.45783 2.04819 4.93976 1.92771 5.90362 1.80723C6.98795 1.80723 7.3494 1.80723 10 1.80723ZM10 0C7.22892 0 6.98795 0 5.90362 0C4.81928 0 4.09639 0.240965 3.49398 0.481928C2.89157 0.722892 2.28916 1.08434 1.68675 1.68675C1.08434 2.28916 0.843374 2.77109 0.481928 3.49398C0.240965 4.09639 0.120482 4.81928 0 5.90362C0 6.98795 0 7.3494 0 10C0 12.7711 0 13.0121 0 14.0964C0 15.1807 0.240965 15.9036 0.481928 16.506C0.722892 17.1084 1.08434 17.7108 1.68675 18.3133C2.28916 18.9157 2.77109 19.1566 3.49398 19.5181C4.09639 19.759 4.81928 19.8795 5.90362 20C6.98795 20 7.3494 20 10 20C12.6506 20 13.0121 20 14.0964 20C15.1807 20 15.9036 19.759 16.506 19.5181C17.1084 19.2771 17.7108 18.9157 18.3133 18.3133C18.9157 17.7108 19.1566 17.2289 19.5181 16.506C19.759 15.9036 19.8795 15.1807 20 14.0964C20 13.0121 20 12.6506 20 10C20 7.3494 20 6.98795 20 5.90362C20 4.81928 19.759 4.09639 19.5181 3.49398C19.2771 2.89157 18.9157 2.28916 18.3133 1.68675C17.7108 1.08434 17.2289 0.843374 16.506 0.481928C15.9036 0.240965 15.1807 0.120482 14.0964 0C13.0121 0 12.7711 0 10 0Z" fill="white"/>
        <path d="M10 4.81928C7.10843 4.81928 4.81928 7.10843 4.81928 10C4.81928 12.8916 7.10843 15.1807 10 15.1807C12.8916 15.1807 15.1807 12.8916 15.1807 10C15.1807 7.10843 12.8916 4.81928 10 4.81928ZM10 13.3735C8.19277 13.3735 6.62651 11.9277 6.62651 10C6.62651 8.19277 8.07229 6.62651 10 6.62651C11.8072 6.62651 13.3735 8.07229 13.3735 10C13.3735 11.8072 11.8072 13.3735 10 13.3735Z" fill="white"/>
        <path d="M15.3012 5.90362C15.9666 5.90362 16.506 5.3642 16.506 4.6988C16.506 4.03339 15.9666 3.49398 15.3012 3.49398C14.6358 3.49398 14.0964 4.03339 14.0964 4.6988C14.0964 5.3642 14.6358 5.90362 15.3012 5.90362Z" fill="white"/>
    </symbol>
    <symbol viewBox="0 0 19 17" id="telegram" fill="none" xmlns="http://www.w3.org/2000/svg">
        <path d="M19 0.602225L15.9946 16.2923C15.9946 16.2923 15.5741 17.3801 14.4189 16.8584L7.48458 11.3526L7.45242 11.3364C8.38909 10.4654 15.6524 3.70266 15.9698 3.39612C16.4613 2.92136 16.1562 2.63873 15.5856 2.99736L4.85679 10.053L0.717638 8.61077C0.717638 8.61077 0.0662573 8.37083 0.00359284 7.84911C-0.0598962 7.32653 0.739076 7.0439 0.739076 7.0439L17.6131 0.188948C17.6131 0.188948 19 -0.44207 19 0.602225Z" fill="white"/>
    </symbol>
    <symbol viewBox="0 0 22 16" id="youtube" fill="none" xmlns="http://www.w3.org/2000/svg">
        <path fill-rule="evenodd" clip-rule="evenodd" d="M2.26249 15.0568C1.87023 14.9408 1.51232 14.7343 1.21896 14.4549C0.925599 14.1754 0.705403 13.8312 0.576947 13.4512C-0.157079 11.4874 -0.374569 3.28693 1.03911 1.66807C1.50961 1.14145 2.17389 0.817218 2.88777 0.765759C6.68024 0.36768 18.3975 0.420757 19.7432 0.898453C20.1217 1.01832 20.4675 1.22026 20.7547 1.48912C21.0419 1.75799 21.263 2.08681 21.4015 2.45096C22.2035 4.48117 22.2307 11.8589 21.2928 13.8095C21.044 14.3173 20.6275 14.7285 20.1102 14.9772C18.6965 15.6672 4.13833 15.6539 2.26249 15.0568ZM8.28422 11.2087L15.0808 7.75869L8.28422 4.28213V11.2087Z" fill="white"/>
    </symbol>
    <symbol viewBox="0 0 20 20" id="gitgub" fill="none" xmlns="http://www.w3.org/2000/svg">
        <path fill-rule="evenodd" clip-rule="evenodd" d="M9.96942 0.239998C4.46483 0.239998 0 4.70483 0 10.2094C0 14.6131 2.87462 18.344 6.78899 19.6895C7.27829 19.7507 7.46177 19.4449 7.46177 19.2002C7.46177 18.9556 7.46177 18.344 7.46177 17.4877C4.70948 18.0993 4.09786 16.1421 4.09786 16.1421C3.66972 14.9801 2.99694 14.6742 2.99694 14.6742C2.07951 14.0626 3.0581 14.0626 3.0581 14.0626C4.0367 14.1238 4.58716 15.1024 4.58716 15.1024C5.50459 16.6314 6.91131 16.2033 7.46177 15.9587C7.52294 15.2859 7.82875 14.8577 8.07339 14.6131C5.87156 14.3684 3.5474 13.5122 3.5474 9.65896C3.5474 8.55804 3.91437 7.70177 4.58716 6.96783C4.52599 6.78434 4.15902 5.74459 4.70948 4.39902C4.70948 4.39902 5.56575 4.15437 7.46177 5.43878C8.25688 5.19413 9.11315 5.13296 9.96942 5.13296C10.8257 5.13296 11.682 5.25529 12.4771 5.43878C14.3731 4.15437 15.2294 4.39902 15.2294 4.39902C15.7798 5.74459 15.4128 6.78434 15.3517 7.02899C15.9633 7.70177 16.3914 8.6192 16.3914 9.72012C16.3914 13.5733 14.0673 14.3684 11.8654 14.6131C12.2324 14.9189 12.5382 15.5305 12.5382 16.448C12.5382 17.7935 12.5382 18.8333 12.5382 19.2002C12.5382 19.4449 12.7217 19.7507 13.211 19.6895C17.1865 18.344 20 14.6131 20 10.2094C19.9388 4.70483 15.474 0.239998 9.96942 0.239998Z" fill="white"/>
    </symbol>
</svg>