<svg display="none" xmlns="https://www.w3.org/2000/svg" >
    <symbol xmlns="http://www.w3.org/2000/svg" x="0px" y="0px" id="facebook" viewBox="0 0 50 50" fill="none">
        <path d="M25,3C12.85,3,3,12.85,3,25c0,11.03,8.125,20.137,18.712,21.728V30.831h-5.443v-5.783h5.443v-3.848 c0-6.371,3.104-9.168,8.399-9.168c2.536,0,3.877,0.188,4.512,0.274v5.048h-3.612c-2.248,0-3.033,2.131-3.033,4.533v3.161h6.588 l-0.894,5.783h-5.694v15.944C38.716,45.318,47,36.137,47,25C47,12.85,37.15,3,25,3z" fill="white"></path>
    </symbol>
    <symbol viewBox="0 0 20 20" id="instagram" fill="none" xmlns="http://www.w3.org/2000/svg">
        <path d="M10 1.80723C12.6506 1.80723 13.0121 1.80723 14.0964 1.80723C15.0602 1.80723 15.5422 2.04819 15.9036 2.16868C16.3855 2.40964 16.747 2.53012 17.1084 2.89157C17.4699 3.25301 17.7108 3.61446 17.8313 4.09639C17.9518 4.45783 18.0723 4.93976 18.1928 5.90362C18.1928 6.98795 18.1928 7.22892 18.1928 10C18.1928 12.7711 18.1928 13.0121 18.1928 14.0964C18.1928 15.0602 17.9518 15.5422 17.8313 15.9036C17.5904 16.3855 17.4699 16.747 17.1084 17.1084C16.747 17.4699 16.3855 17.7108 15.9036 17.8313C15.5422 17.9518 15.0602 18.0723 14.0964 18.1928C13.0121 18.1928 12.7711 18.1928 10 18.1928C7.22892 18.1928 6.98795 18.1928 5.90362 18.1928C4.93976 18.1928 4.45783 17.9518 4.09639 17.8313C3.61446 17.5904 3.25301 17.4699 2.89157 17.1084C2.53012 16.747 2.28916 16.3855 2.16868 15.9036C2.04819 15.5422 1.92771 15.0602 1.80723 14.0964C1.80723 13.0121 1.80723 12.7711 1.80723 10C1.80723 7.22892 1.80723 6.98795 1.80723 5.90362C1.80723 4.93976 2.04819 4.45783 2.16868 4.09639C2.40964 3.61446 2.53012 3.25301 2.89157 2.89157C3.25301 2.53012 3.61446 2.28916 4.09639 2.16868C4.45783 2.04819 4.93976 1.92771 5.90362 1.80723C6.98795 1.80723 7.3494 1.80723 10 1.80723ZM10 0C7.22892 0 6.98795 0 5.90362 0C4.81928 0 4.09639 0.240965 3.49398 0.481928C2.89157 0.722892 2.28916 1.08434 1.68675 1.68675C1.08434 2.28916 0.843374 2.77109 0.481928 3.49398C0.240965 4.09639 0.120482 4.81928 0 5.90362C0 6.98795 0 7.3494 0 10C0 12.7711 0 13.0121 0 14.0964C0 15.1807 0.240965 15.9036 0.481928 16.506C0.722892 17.1084 1.08434 17.7108 1.68675 18.3133C2.28916 18.9157 2.77109 19.1566 3.49398 19.5181C4.09639 19.759 4.81928 19.8795 5.90362 20C6.98795 20 7.3494 20 10 20C12.6506 20 13.0121 20 14.0964 20C15.1807 20 15.9036 19.759 16.506 19.5181C17.1084 19.2771 17.7108 18.9157 18.3133 18.3133C18.9157 17.7108 19.1566 17.2289 19.5181 16.506C19.759 15.9036 19.8795 15.1807 20 14.0964C20 13.0121 20 12.6506 20 10C20 7.3494 20 6.98795 20 5.90362C20 4.81928 19.759 4.09639 19.5181 3.49398C19.2771 2.89157 18.9157 2.28916 18.3133 1.68675C17.7108 1.08434 17.2289 0.843374 16.506 0.481928C15.9036 0.240965 15.1807 0.120482 14.0964 0C13.0121 0 12.7711 0 10 0Z" fill="white"/>
        <path d="M10 4.81928C7.10843 4.81928 4.81928 7.10843 4.81928 10C4.81928 12.8916 7.10843 15.1807 10 15.1807C12.8916 15.1807 15.1807 12.8916 15.1807 10C15.1807 7.10843 12.8916 4.81928 10 4.81928ZM10 13.3735C8.19277 13.3735 6.62651 11.9277 6.62651 10C6.62651 8.19277 8.07229 6.62651 10 6.62651C11.8072 6.62651 13.3735 8.07229 13.3735 10C13.3735 11.8072 11.8072 13.3735 10 13.3735Z" fill="white"/>
        <path d="M15.3012 5.90362C15.9666 5.90362 16.506 5.3642 16.506 4.6988C16.506 4.03339 15.9666 3.49398 15.3012 3.49398C14.6358 3.49398 14.0964 4.03339 14.0964 4.6988C14.0964 5.3642 14.6358 5.90362 15.3012 5.90362Z" fill="white"/>
    </symbol>
    <symbol viewBox="0 0 19 17" id="telegram" fill="none" xmlns="http://www.w3.org/2000/svg">
        <path d="M19 0.602225L15.9946 16.2923C15.9946 16.2923 15.5741 17.3801 14.4189 16.8584L7.48458 11.3526L7.45242 11.3364C8.38909 10.4654 15.6524 3.70266 15.9698 3.39612C16.4613 2.92136 16.1562 2.63873 15.5856 2.99736L4.85679 10.053L0.717638 8.61077C0.717638 8.61077 0.0662573 8.37083 0.00359284 7.84911C-0.0598962 7.32653 0.739076 7.0439 0.739076 7.0439L17.6131 0.188948C17.6131 0.188948 19 -0.44207 19 0.602225Z" fill="white"/>
    </symbol>
    <symbol viewBox="0 0 22 16" id="youtube" fill="none" xmlns="http://www.w3.org/2000/svg">
        <path fill-rule="evenodd" clip-rule="evenodd" d="M2.26249 15.0568C1.87023 14.9408 1.51232 14.7343 1.21896 14.4549C0.925599 14.1754 0.705403 13.8312 0.576947 13.4512C-0.157079 11.4874 -0.374569 3.28693 1.03911 1.66807C1.50961 1.14145 2.17389 0.817218 2.88777 0.765759C6.68024 0.36768 18.3975 0.420757 19.7432 0.898453C20.1217 1.01832 20.4675 1.22026 20.7547 1.48912C21.0419 1.75799 21.263 2.08681 21.4015 2.45096C22.2035 4.48117 22.2307 11.8589 21.2928 13.8095C21.044 14.3173 20.6275 14.7285 20.1102 14.9772C18.6965 15.6672 4.13833 15.6539 2.26249 15.0568ZM8.28422 11.2087L15.0808 7.75869L8.28422 4.28213V11.2087Z" fill="white"/>
    </symbol>
    <symbol  viewBox="0 0 20 20" id="pinterest" fill="none" xmlns="http://www.w3.org/2000/svg">
        <path d="M10 0C4.5 0 0 4.5 0 10C0 14.125 2.5 17.625 6 19.125C6 18.375 5.99999 17.625 6.12499 16.875C6.37499 16 7.37499 11.375 7.37499 11.375C7.37499 11.375 7.00001 10.75 7.00001 9.75C7.00001 8.25 7.87501 7.125 8.87501 7.125C9.75001 7.125 10.25 7.75 10.25 8.625C10.25 9.5 9.625 10.875 9.375 12.125C9.125 13.125 9.875 14 11 14C12.875 14 14.125 11.625 14.125 8.625C14.125 6.375 12.625 4.75 10 4.75C7 4.75 5.12501 7 5.12501 9.5C5.12501 10.375 5.37501 11 5.75001 11.5C5.87501 11.75 6 11.75 5.875 12C5.875 12.125 5.75 12.625 5.625 12.75C5.5 13 5.37501 13.125 5.12501 13C3.75001 12.375 3.125 10.875 3.125 9.125C3.125 6.25 5.5 2.875 10.25 2.875C14.125 2.875 16.625 5.625 16.625 8.625C16.625 12.5 14.5 15.5 11.25 15.5C10.125 15.5 9.125 14.875 8.75 14.25C8.75 14.25 8.12499 16.5 7.99999 17C7.74999 17.75 7.37501 18.5 7.00001 19.125C7.87501 19.375 8.87499 19.5 9.87499 19.5C15.375 19.5 19.875 15 19.875 9.5C20 4.5 15.5 0 10 0Z" fill="white"/>
    </symbol>
    <symbol xmlns="http://www.w3.org/2000/svg" x="0px" y="0px" id="search" viewBox="0 0 50 50" fill="white">
        <path d="M 21 3 C 11.654545 3 4 10.654545 4 20 C 4 29.345455 11.654545 37 21 37 C 24.701287 37 28.127393 35.786719 30.927734 33.755859 L 44.085938 46.914062 L 46.914062 44.085938 L 33.875 31.046875 C 36.43682 28.068316 38 24.210207 38 20 C 38 10.654545 30.345455 3 21 3 z M 21 5 C 29.254545 5 36 11.745455 36 20 C 36 28.254545 29.254545 35 21 35 C 12.745455 35 6 28.254545 6 20 C 6 11.745455 12.745455 5 21 5 z" fill="white"></path>
    </symbol>
    <symbol id="close" viewBox="0 0 1024 1024" xmlns="http://www.w3.org/2000/svg">
        <path fill="#495057" d="M195.2 195.2a64 64 0 0 1 90.496 0L512 421.504 738.304 195.2a64 64 0 0 1 90.496 90.496L602.496 512 828.8 738.304a64 64 0 0 1-90.496 90.496L512 602.496 285.696 828.8a64 64 0 0 1-90.496-90.496L421.504 512 195.2 285.696a64 64 0 0 1 0-90.496z"/>
    </symbol>
    <symbol id="open" viewBox="0 0 20 20" xmlns="http://www.w3.org/2000/svg" fill="none">
        <path fill="#495057" fill-rule="evenodd" d="M9 17a1 1 0 102 0v-6h6a1 1 0 100-2h-6V3a1 1 0 10-2 0v6H3a1 1 0 000 2h6v6z"/>
    </symbol>
</svg>