<svg display="none" xmlns="https://www.w3.org/2000/svg" >
    <symbol xmlns="http://www.w3.org/2000/svg" x="0px" y="0px" id="facebook" viewBox="0 0 50 50" fill="none">
        <path d="M25,3C12.85,3,3,12.85,3,25c0,11.03,8.125,20.137,18.712,21.728V30.831h-5.443v-5.783h5.443v-3.848 c0-6.371,3.104-9.168,8.399-9.168c2.536,0,3.877,0.188,4.512,0.274v5.048h-3.612c-2.248,0-3.033,2.131-3.033,4.533v3.161h6.588 l-0.894,5.783h-5.694v15.944C38.716,45.318,47,36.137,47,25C47,12.85,37.15,3,25,3z" fill="white"></path>
    </symbol>
    <symbol viewBox="0 0 20 20" id="instagram" fill="none" xmlns="http://www.w3.org/2000/svg">
        <path d="M10 1.80723C12.6506 1.80723 13.0121 1.80723 14.0964 1.80723C15.0602 1.80723 15.5422 2.04819 15.9036 2.16868C16.3855 2.40964 16.747 2.53012 17.1084 2.89157C17.4699 3.25301 17.7108 3.61446 17.8313 4.09639C17.9518 4.45783 18.0723 4.93976 18.1928 5.90362C18.1928 6.98795 18.1928 7.22892 18.1928 10C18.1928 12.7711 18.1928 13.0121 18.1928 14.0964C18.1928 15.0602 17.9518 15.5422 17.8313 15.9036C17.5904 16.3855 17.4699 16.747 17.1084 17.1084C16.747 17.4699 16.3855 17.7108 15.9036 17.8313C15.5422 17.9518 15.0602 18.0723 14.0964 18.1928C13.0121 18.1928 12.7711 18.1928 10 18.1928C7.22892 18.1928 6.98795 18.1928 5.90362 18.1928C4.93976 18.1928 4.45783 17.9518 4.09639 17.8313C3.61446 17.5904 3.25301 17.4699 2.89157 17.1084C2.53012 16.747 2.28916 16.3855 2.16868 15.9036C2.04819 15.5422 1.92771 15.0602 1.80723 14.0964C1.80723 13.0121 1.80723 12.7711 1.80723 10C1.80723 7.22892 1.80723 6.98795 1.80723 5.90362C1.80723 4.93976 2.04819 4.45783 2.16868 4.09639C2.40964 3.61446 2.53012 3.25301 2.89157 2.89157C3.25301 2.53012 3.61446 2.28916 4.09639 2.16868C4.45783 2.04819 4.93976 1.92771 5.90362 1.80723C6.98795 1.80723 7.3494 1.80723 10 1.80723ZM10 0C7.22892 0 6.98795 0 5.90362 0C4.81928 0 4.09639 0.240965 3.49398 0.481928C2.89157 0.722892 2.28916 1.08434 1.68675 1.68675C1.08434 2.28916 0.843374 2.77109 0.481928 3.49398C0.240965 4.09639 0.120482 4.81928 0 5.90362C0 6.98795 0 7.3494 0 10C0 12.7711 0 13.0121 0 14.0964C0 15.1807 0.240965 15.9036 0.481928 16.506C0.722892 17.1084 1.08434 17.7108 1.68675 18.3133C2.28916 18.9157 2.77109 19.1566 3.49398 19.5181C4.09639 19.759 4.81928 19.8795 5.90362 20C6.98795 20 7.3494 20 10 20C12.6506 20 13.0121 20 14.0964 20C15.1807 20 15.9036 19.759 16.506 19.5181C17.1084 19.2771 17.7108 18.9157 18.3133 18.3133C18.9157 17.7108 19.1566 17.2289 19.5181 16.506C19.759 15.9036 19.8795 15.1807 20 14.0964C20 13.0121 20 12.6506 20 10C20 7.3494 20 6.98795 20 5.90362C20 4.81928 19.759 4.09639 19.5181 3.49398C19.2771 2.89157 18.9157 2.28916 18.3133 1.68675C17.7108 1.08434 17.2289 0.843374 16.506 0.481928C15.9036 0.240965 15.1807 0.120482 14.0964 0C13.0121 0 12.7711 0 10 0Z" fill="white"/>
        <path d="M10 4.81928C7.10843 4.81928 4.81928 7.10843 4.81928 10C4.81928 12.8916 7.10843 15.1807 10 15.1807C12.8916 15.1807 15.1807 12.8916 15.1807 10C15.1807 7.10843 12.8916 4.81928 10 4.81928ZM10 13.3735C8.19277 13.3735 6.62651 11.9277 6.62651 10C6.62651 8.19277 8.07229 6.62651 10 6.62651C11.8072 6.62651 13.3735 8.07229 13.3735 10C13.3735 11.8072 11.8072 13.3735 10 13.3735Z" fill="white"/>
        <path d="M15.3012 5.90362C15.9666 5.90362 16.506 5.3642 16.506 4.6988C16.506 4.03339 15.9666 3.49398 15.3012 3.49398C14.6358 3.49398 14.0964 4.03339 14.0964 4.6988C14.0964 5.3642 14.6358 5.90362 15.3012 5.90362Z" fill="white"/>
    </symbol>
    <symbol viewBox="0 0 19 17" id="telegram" fill="none" xmlns="http://www.w3.org/2000/svg">
        <path d="M19 0.602225L15.9946 16.2923C15.9946 16.2923 15.5741 17.3801 14.4189 16.8584L7.48458 11.3526L7.45242 11.3364C8.38909 10.4654 15.6524 3.70266 15.9698 3.39612C16.4613 2.92136 16.1562 2.63873 15.5856 2.99736L4.85679 10.053L0.717638 8.61077C0.717638 8.61077 0.0662573 8.37083 0.00359284 7.84911C-0.0598962 7.32653 0.739076 7.0439 0.739076 7.0439L17.6131 0.188948C17.6131 0.188948 19 -0.44207 19 0.602225Z" fill="white"/>
    </symbol>
    <symbol viewBox="0 0 22 16" id="youtube" fill="none" xmlns="http://www.w3.org/2000/svg">
        <path fill-rule="evenodd" clip-rule="evenodd" d="M2.26249 15.0568C1.87023 14.9408 1.51232 14.7343 1.21896 14.4549C0.925599 14.1754 0.705403 13.8312 0.576947 13.4512C-0.157079 11.4874 -0.374569 3.28693 1.03911 1.66807C1.50961 1.14145 2.17389 0.817218 2.88777 0.765759C6.68024 0.36768 18.3975 0.420757 19.7432 0.898453C20.1217 1.01832 20.4675 1.22026 20.7547 1.48912C21.0419 1.75799 21.263 2.08681 21.4015 2.45096C22.2035 4.48117 22.2307 11.8589 21.2928 13.8095C21.044 14.3173 20.6275 14.7285 20.1102 14.9772C18.6965 15.6672 4.13833 15.6539 2.26249 15.0568ZM8.28422 11.2087L15.0808 7.75869L8.28422 4.28213V11.2087Z" fill="white"/>
    </symbol>
    <symbol  viewBox="0 0 20 20" id="pinterest" fill="none" xmlns="http://www.w3.org/2000/svg">
        <path d="M10 0C4.5 0 0 4.5 0 10C0 14.125 2.5 17.625 6 19.125C6 18.375 5.99999 17.625 6.12499 16.875C6.37499 16 7.37499 11.375 7.37499 11.375C7.37499 11.375 7.00001 10.75 7.00001 9.75C7.00001 8.25 7.87501 7.125 8.87501 7.125C9.75001 7.125 10.25 7.75 10.25 8.625C10.25 9.5 9.625 10.875 9.375 12.125C9.125 13.125 9.875 14 11 14C12.875 14 14.125 11.625 14.125 8.625C14.125 6.375 12.625 4.75 10 4.75C7 4.75 5.12501 7 5.12501 9.5C5.12501 10.375 5.37501 11 5.75001 11.5C5.87501 11.75 6 11.75 5.875 12C5.875 12.125 5.75 12.625 5.625 12.75C5.5 13 5.37501 13.125 5.12501 13C3.75001 12.375 3.125 10.875 3.125 9.125C3.125 6.25 5.5 2.875 10.25 2.875C14.125 2.875 16.625 5.625 16.625 8.625C16.625 12.5 14.5 15.5 11.25 15.5C10.125 15.5 9.125 14.875 8.75 14.25C8.75 14.25 8.12499 16.5 7.99999 17C7.74999 17.75 7.37501 18.5 7.00001 19.125C7.87501 19.375 8.87499 19.5 9.87499 19.5C15.375 19.5 19.875 15 19.875 9.5C20 4.5 15.5 0 10 0Z" fill="white"/>
    </symbol>
    <symbol xmlns="http://www.w3.org/2000/svg" x="0px" y="0px" id="search" viewBox="0 0 50 50" fill="white">
        <path d="M 21 3 C 11.654545 3 4 10.654545 4 20 C 4 29.345455 11.654545 37 21 37 C 24.701287 37 28.127393 35.786719 30.927734 33.755859 L 44.085938 46.914062 L 46.914062 44.085938 L 33.875 31.046875 C 36.43682 28.068316 38 24.210207 38 20 C 38 10.654545 30.345455 3 21 3 z M 21 5 C 29.254545 5 36 11.745455 36 20 C 36 28.254545 29.254545 35 21 35 C 12.745455 35 6 28.254545 6 20 C 6 11.745455 12.745455 5 21 5 z" fill="white"></path>
    </symbol>
    <symbol id="close" viewBox="0 0 1024 1024" xmlns="http://www.w3.org/2000/svg">
        <path fill="#495057" d="M195.2 195.2a64 64 0 0 1 90.496 0L512 421.504 738.304 195.2a64 64 0 0 1 90.496 90.496L602.496 512 828.8 738.304a64 64 0 0 1-90.496 90.496L512 602.496 285.696 828.8a64 64 0 0 1-90.496-90.496L421.504 512 195.2 285.696a64 64 0 0 1 0-90.496z"/>
    </symbol>
    <symbol id="open" viewBox="0 0 20 20" xmlns="http://www.w3.org/2000/svg" fill="none">
        <path fill="#495057" fill-rule="evenodd" d="M9 17a1 1 0 102 0v-6h6a1 1 0 100-2h-6V3a1 1 0 10-2 0v6H3a1 1 0 000 2h6v6z"/>
    </symbol>
    <symbol id="sun" viewBox="0 0 55 55" fill="none" xmlns="http://www.w3.org/2000/svg">
        <path d="M27.5 2.86458C28.4492 2.86458 29.2187 3.63409 29.2187 4.58333V6.875C29.2187 7.82424 28.4492 8.59375 27.5 8.59375C26.5508 8.59375 25.7812 7.82424 25.7812 6.875V4.58333C25.7812 3.63409 26.5508 2.86458 27.5 2.86458Z" fill="black"/>
        <path fill-rule="evenodd" clip-rule="evenodd" d="M14.3229 27.5C14.3229 20.2225 20.2225 14.3229 27.5 14.3229C34.7775 14.3229 40.6771 20.2225 40.6771 27.5C40.6771 34.7775 34.7775 40.6771 27.5 40.6771C20.2225 40.6771 14.3229 34.7775 14.3229 27.5ZM27.5 17.7604C22.121 17.7604 17.7604 22.121 17.7604 27.5C17.7604 32.879 22.121 37.2396 27.5 37.2396C32.879 37.2396 37.2396 32.879 37.2396 27.5C37.2396 22.121 32.879 17.7604 27.5 17.7604Z" fill="black"/>
        <path d="M12.5108 10.0802C11.8396 9.40897 10.7514 9.40897 10.0802 10.0802C9.40895 10.7514 9.40895 11.8396 10.0802 12.5109L11.7006 14.1313C12.3718 14.8025 13.4601 14.8025 14.1313 14.1313C14.8025 13.4601 14.8025 12.3718 14.1313 11.7006L12.5108 10.0802Z" fill="black"/>
        <path d="M52.1354 27.5C52.1354 28.4492 51.3659 29.2187 50.4167 29.2187H48.125C47.1758 29.2187 46.4062 28.4492 46.4062 27.5C46.4062 26.5508 47.1758 25.7812 48.125 25.7812H50.4167C51.3659 25.7812 52.1354 26.5508 52.1354 27.5Z" fill="black"/>
        <path d="M44.9198 12.5108C45.591 11.8396 45.591 10.7514 44.9198 10.0802C44.2486 9.40895 43.1604 9.40895 42.4891 10.0802L40.8687 11.7006C40.1975 12.3718 40.1975 13.4601 40.8687 14.1313C41.5399 14.8025 42.6281 14.8025 43.2994 14.1313L44.9198 12.5108Z" fill="black"/>
        <path d="M27.5 46.4062C28.4492 46.4062 29.2187 47.1758 29.2187 48.125V50.4167C29.2187 51.3659 28.4492 52.1354 27.5 52.1354C26.5508 52.1354 25.7812 51.3659 25.7812 50.4167V48.125C25.7812 47.1758 26.5508 46.4062 27.5 46.4062Z" fill="black"/>
        <path d="M43.2995 40.8687C42.6283 40.1975 41.54 40.1975 40.8688 40.8687C40.1976 41.5399 40.1976 42.6282 40.8688 43.2994L42.4893 44.9198C43.1605 45.5911 44.2488 45.5911 44.92 44.9198C45.5912 44.2486 45.5912 43.1604 44.92 42.4892L43.2995 40.8687Z" fill="black"/>
        <path d="M8.59375 27.5C8.59375 28.4492 7.82424 29.2187 6.875 29.2187H4.58333C3.63409 29.2187 2.86458 28.4492 2.86458 27.5C2.86458 26.5508 3.63409 25.7812 4.58333 25.7812H6.875C7.82424 25.7812 8.59375 26.5508 8.59375 27.5Z" fill="black"/>
        <path d="M14.1311 43.2994C14.8024 42.6282 14.8024 41.5399 14.1311 40.8687C13.4599 40.1975 12.3717 40.1975 11.7005 40.8687L10.08 42.4891C9.40879 43.1604 9.40879 44.2486 10.08 44.9198C10.7512 45.591 11.8395 45.591 12.5107 44.9198L14.1311 43.2994Z" fill="black"/>
    </symbol>
    <symbol id="cloud-sun" xmlns="http://www.w3.org/2000/svg" fill="#fff"  viewBox="0 0 16 16">
        <path d="M7 8a3.5 3.5 0 0 1 3.5 3.555a.5.5 0 0 0 .624.492A1.503 1.503 0 0 1 13 13.5a1.5 1.5 0 0 1-1.5 1.5H3a2 2 0 1 1 .1-3.998a.5.5 0 0 0 .51-.375A3.5 3.5 0 0 1 7 8m4.473 3a4.5 4.5 0 0 0-8.72-.99A3 3 0 0 0 3 16h8.5a2.5 2.5 0 0 0 0-5z"/>
        <path d="M10.5 1.5a.5.5 0 0 0-1 0v1a.5.5 0 0 0 1 0zm3.743 1.964a.5.5 0 1 0-.707-.707l-.708.707a.5.5 0 0 0 .708.708zm-7.779-.707a.5.5 0 0 0-.707.707l.707.708a.5.5 0 1 0 .708-.708zm1.734 3.374a2 2 0 1 1 3.296 2.198q.3.423.516.898a3 3 0 1 0-4.84-3.225q.529.017 1.028.129m4.484 4.074c.6.215 1.125.59 1.522 1.072a.5.5 0 0 0 .039-.742l-.707-.707a.5.5 0 0 0-.854.377M14.5 6.5a.5.5 0 0 0 0 1h1a.5.5 0 0 0 0-1z"/>
    </symbol>
    <symbol id="cloud-moon" xmlns="http://www.w3.org/2000/svg" viewBox="0 0 16 16">
        <g fill="#fff">
            <path d="M7 8a3.5 3.5 0 0 1 3.5 3.555a.5.5 0 0 0 .625.492A1.503 1.503 0 0 1 13 13.5a1.5 1.5 0 0 1-1.5 1.5H3a2 2 0 1 1 .1-3.998a.5.5 0 0 0 .509-.375A3.5 3.5 0 0 1 7 8m4.473 3a4.5 4.5 0 0 0-8.72-.99A3 3 0 0 0 3 16h8.5a2.5 2.5 0 0 0 0-5z"/>
            <path d="M11.286 1.778a.5.5 0 0 0-.565-.755a4.595 4.595 0 0 0-3.18 5.003a5.5 5.5 0 0 1 1.055.209A3.6 3.6 0 0 1 9.83 2.617a4.593 4.593 0 0 0 4.31 5.744a3.58 3.58 0 0 1-2.241.634q.244.477.394 1a4.59 4.59 0 0 0 3.624-2.04a.5.5 0 0 0-.565-.755a3.593 3.593 0 0 1-4.065-5.422z"/>
        </g>
    </symbol>
    <symbol id="cloud-rain" xmlns="http://www.w3.org/2000/svg" 
     viewBox="0 0 16 16">
        <path fill="#fff" d="M4.158 12.025a.5.5 0 0 1 .316.633l-.5 1.5a.5.5 0 0 1-.948-.316l.5-1.5a.5.5 0 0 1 .632-.317m3 0a.5.5 0 0 1 .316.633l-1 3a.5.5 0 0 1-.948-.316l1-3a.5.5 0 0 1 .632-.317m3 0a.5.5 0 0 1 .316.633l-.5 1.5a.5.5 0 0 1-.948-.316l.5-1.5a.5.5 0 0 1 .632-.317m3 0a.5.5 0 0 1 .316.633l-1 3a.5.5 0 1 1-.948-.316l1-3a.5.5 0 0 1 .632-.317m.247-6.998a5.001 5.001 0 0 0-9.499-1.004A3.5 3.5 0 1 0 3.5 11H13a3 3 0 0 0 .405-5.973M8.5 2a4 4 0 0 1 3.976 3.555a.5.5 0 0 0 .5.445H13a2 2 0 0 1 0 4H3.5a2.5 2.5 0 1 1 .605-4.926a.5.5 0 0 0 .596-.329A4 4 0 0 1 8.5 2"/>
    </symbol>
    <symbol id="moon" xmlns="http://www.w3.org/2000/svg"  viewBox="0 0 16 16">
        <g fill="#fff">
            <path d="M6 .278a.77.77 0 0 1 .08.858a7.2 7.2 0 0 0-.878 3.46c0 4.021 3.278 7.277 7.318 7.277q.792-.001 1.533-.16a.79.79 0 0 1 .81.316a.73.73 0 0 1-.031.893A8.35 8.35 0 0 1 8.344 16C3.734 16 0 12.286 0 7.71C0 4.266 2.114 1.312 5.124.06A.75.75 0 0 1 6 .278M4.858 1.311A7.27 7.27 0 0 0 1.025 7.71c0 4.02 3.279 7.276 7.319 7.276a7.32 7.32 0 0 0 5.205-2.162q-.506.063-1.029.063c-4.61 0-8.343-3.714-8.343-8.29c0-1.167.242-2.278.681-3.286"/>
            <path d="M10.794 3.148a.217.217 0 0 1 .412 0l.387 1.162c.173.518.579.924 1.097 1.097l1.162.387a.217.217 0 0 1 0 .412l-1.162.387a1.73 1.73 0 0 0-1.097 1.097l-.387 1.162a.217.217 0 0 1-.412 0l-.387-1.162A1.73 1.73 0 0 0 9.31 6.593l-1.162-.387a.217.217 0 0 1 0-.412l1.162-.387a1.73 1.73 0 0 0 1.097-1.097zM13.863.099a.145.145 0 0 1 .274 0l.258.774c.115.346.386.617.732.732l.774.258a.145.145 0 0 1 0 .274l-.774.258a1.16 1.16 0 0 0-.732.732l-.258.774a.145.145 0 0 1-.274 0l-.258-.774a1.16 1.16 0 0 0-.732-.732l-.774-.258a.145.145 0 0 1 0-.274l.774-.258c.346-.115.617-.386.732-.732z"/>
        </g>
    </symbol>
    <symbol id="snow" xmlns="http://www.w3.org/2000/svg"  viewBox="0 0 30 30">
        <path fill="#fff" d="M4.64 16.95c0-1.16.35-2.18 1.06-3.08s1.62-1.48 2.74-1.76q.465-2.04 2.1-3.36c1.635-1.32 2.34-1.31 3.75-1.31c1.38 0 2.6.43 3.68 1.28s1.78 1.95 2.1 3.29h.32c.89 0 1.72.22 2.48.66s1.37 1.04 1.81 1.8s.67 1.59.67 2.48c0 1.32-.46 2.47-1.39 3.42c-.92.96-2.05 1.46-3.38 1.5c-.13 0-.2-.06-.2-.17v-1.33c0-.12.07-.18.2-.18c.85-.04 1.58-.38 2.18-1.02s.9-1.38.9-2.23c0-.89-.32-1.65-.97-2.3s-1.42-.97-2.32-.97h-1.61c-.12 0-.18-.06-.18-.17l-.08-.58c-.11-1.08-.58-1.99-1.39-2.72c-.82-.73-1.76-1.1-2.85-1.1c-1.1 0-2.05.37-2.86 1.11s-1.27 1.65-1.37 2.75l-.06.5c0 .12-.07.19-.2.19l-.53.07c-.83.07-1.53.41-2.1 1.04s-.85 1.35-.85 2.19c0 .85.3 1.59.9 2.23s1.33.97 2.18 1.02c.11 0 .17.06.17.18v1.33c0 .11-.06.17-.17.17c-1.34-.04-2.47-.54-3.4-1.5c-.87-.96-1.33-2.11-1.33-3.43M11 21.02c0-.22.08-.42.24-.58s.35-.24.59-.24c.23 0 .43.08.59.24s.24.36.24.58q0 .36-.24.6c-.16.17-.35.25-.59.25c-.23 0-.43-.08-.59-.25a.8.8 0 0 1-.24-.6m0 3.63q0-.36.24-.6c.16-.15.35-.23.58-.23s.43.08.59.23c.16.16.24.35.24.59s-.08.43-.24.59s-.35.23-.59.23a.84.84 0 0 1-.59-.23a.8.8 0 0 1-.23-.58m3.19-1.7c0-.23.08-.44.25-.62q.24-.24.57-.24c.23 0 .43.09.6.26s.26.37.26.6s-.08.43-.25.6s-.37.25-.61.25c-.23 0-.42-.08-.58-.25s-.24-.37-.24-.6m0-3.62c0-.23.08-.43.25-.6q.27-.24.57-.24c.24 0 .44.08.61.25a.8.8 0 0 1 .25.6c0 .23-.08.43-.25.59s-.37.24-.61.24c-.23 0-.42-.08-.58-.24a.85.85 0 0 1-.24-.6m0 7.28c0-.23.08-.43.25-.61q.24-.24.57-.24c.24 0 .44.08.61.25s.25.37.25.6s-.08.43-.25.59s-.37.24-.61.24a.824.824 0 0 1-.82-.83m3.22-5.59c0-.22.08-.41.25-.58s.37-.25.6-.25s.43.08.59.24s.24.36.24.58q0 .36-.24.6c-.16.17-.35.25-.59.25s-.44-.08-.6-.25a.82.82 0 0 1-.25-.59m0 3.63c0-.22.08-.42.25-.6c.16-.15.36-.23.6-.23s.43.08.59.23s.23.35.23.59s-.08.43-.23.59c-.16.16-.35.23-.59.23q-.36 0-.6-.24a.76.76 0 0 1-.25-.57"/>
    </symbol>
    <symbol id="thunder" xmlns="http://www.w3.org/2000/svg" viewBox="0 0 30 30">
        <path fill="#fff" d="M4.63 16.91q0 1.665.99 2.97c.99 1.305 1.52 1.47 2.58 1.79l-.66 1.68c-.03.14.02.22.14.22h2.13l-.98 4.3h.28l3.92-5.75c.04-.04.04-.09.01-.14s-.08-.07-.15-.07h-2.18l2.48-4.64c.07-.14.02-.22-.14-.22h-2.94c-.09 0-.17.05-.23.15l-1.07 2.87c-.71-.18-1.3-.57-1.77-1.16s-.7-1.26-.7-2.01c0-.83.28-1.55.85-2.17c.57-.61 1.27-.97 2.1-1.07l.53-.07c.13 0 .2-.06.2-.18l.07-.51c.11-1.08.56-1.99 1.37-2.72s1.76-1.1 2.85-1.1s2.04.37 2.85 1.1c.82.73 1.28 1.64 1.4 2.72l.07.58c0 .11.06.17.18.17h1.6c.91 0 1.68.32 2.32.95s.97 1.4.97 2.28c0 .85-.3 1.59-.89 2.21s-1.33.97-2.2 1.04c-.13 0-.2.06-.2.18v1.37c0 .11.07.17.2.17c1.33-.04 2.46-.55 3.39-1.51s1.39-2.11 1.39-3.45c0-.9-.22-1.73-.67-2.49a4.9 4.9 0 0 0-1.81-1.8c-.77-.44-1.6-.66-2.5-.66h-.31c-.33-1.33-1.04-2.42-2.11-3.26s-2.3-1.27-3.68-1.27c-1.41 0-2.67.44-3.76 1.31s-1.79 1.99-2.1 3.36c-1.11.26-2.02.83-2.74 1.73s-1.08 1.95-1.08 3.1m8.14 9.71c0 .39.19.65.58.77c.01 0 .05 0 .11.01s.11.01.14.01c.17 0 .33-.05.49-.15s.27-.26.32-.48l2.25-8.69c.06-.24.04-.45-.07-.65a.83.83 0 0 0-.5-.39l-.26-.03c-.16 0-.32.05-.47.15a.74.74 0 0 0-.31.45l-2.26 8.72c-.01.1-.02.19-.02.28m4.16-3.06c0 .13.03.26.1.38c.14.22.31.37.51.44c.11.03.21.05.3.05s.2-.02.32-.08q.315-.135.42-.57l1.44-5.67c.03-.14.05-.23.05-.27c0-.15-.05-.3-.16-.45s-.26-.26-.46-.32l-.26-.03c-.17 0-.33.05-.47.15a.82.82 0 0 0-.3.45l-1.46 5.7c0 .02 0 .05-.01.11c-.02.05-.02.08-.02.11"/>
    </symbol>
    <symbol id="fog" xmlns="http://www.w3.org/2000/svg" viewBox="0 0 30 30">
        <path fill="currentColor" d="M2.62 21.05c0-.24.08-.45.25-.61q.255-.24.63-.24h18.67a.82.82 0 0 1 .85.85c0 .23-.08.43-.25.58c-.17.16-.37.23-.6.23H3.5c-.25 0-.46-.08-.63-.23a.76.76 0 0 1-.25-.58m2.62-3.14c0-.24.09-.44.26-.6c.15-.15.35-.23.59-.23h18.67c.23 0 .42.08.58.24s.23.35.23.59s-.08.44-.23.6c-.16.17-.35.25-.58.25H6.09c-.24 0-.44-.08-.6-.25a.82.82 0 0 1-.25-.6m.13-2.39c0 .09.05.13.15.13h1.43c.06 0 .13-.05.2-.16c.24-.52.59-.94 1.06-1.27s.99-.52 1.55-.56l.55-.07c.11 0 .17-.06.17-.18l.07-.5c.11-1.08.56-1.98 1.37-2.7q1.215-1.08 2.85-1.08c1.08 0 2.02.36 2.83 1.07c.8.71 1.26 1.61 1.37 2.68l.08.57c0 .11.07.17.2.17h1.59c.64 0 1.23.17 1.76.52s.92.8 1.18 1.37c.07.11.14.16.21.16h1.43c.12 0 .17-.07.14-.23c-.29-1.02-.88-1.86-1.74-2.51c-.87-.65-1.86-.97-2.97-.97h-.32q-.495-1.995-2.1-3.27c-1.605-1.275-2.28-1.27-3.65-1.27c-1.4 0-2.64.44-3.73 1.32s-1.78 2-2.09 3.36c-.85.2-1.6.6-2.24 1.21s-1.09 1.33-1.34 2.18v-.04c-.01 0-.01.03-.01.07m1.61 8.59c0-.24.09-.43.26-.59c.15-.15.35-.23.6-.23h18.68c.24 0 .44.08.6.23c.17.16.25.35.25.58c0 .24-.08.44-.25.61s-.37.25-.6.25H7.84c-.23 0-.43-.09-.6-.26a.77.77 0 0 1-.26-.59"/>
    </symbol>
    <symbol id="sass"  viewBox="0 0 512 512"  xml:space="preserve" xmlns="http://www.w3.org/2000/svg" xmlns:xlink="http://www.w3.org/1999/xlink" fill="#CF649A">
        <path d="M422.009,281.793c-16.096,0.071-30.035,3.952-41.675,9.701c-4.24-8.553-8.624-16.025-9.343-21.629     c-0.86-6.54-1.796-10.419-0.789-18.179c1.007-7.762,5.532-18.756,5.461-19.545c-0.071-0.79-1.006-4.743-10.275-4.815     c-9.269-0.071-17.244,1.796-18.179,4.239c-0.936,2.443-2.73,7.977-3.808,13.725c-1.653,8.407-18.54,38.443-28.097,54.107     c-3.161-6.106-5.819-11.497-6.395-15.808c-0.862-6.54-1.796-10.419-0.79-18.179c1.006-7.762,5.532-18.756,5.46-19.545     c-0.072-0.79-1.006-4.743-10.274-4.815c-9.27-0.071-17.244,1.796-18.18,4.24c-0.934,2.442-1.94,8.191-3.808,13.726     c-1.867,5.53-24.359,55.541-30.251,68.548c-3.019,6.609-5.604,11.927-7.473,15.521c-0.286,0.574-0.502,0.934-0.646,1.222     c0.215-0.359,0.36-0.72,0.36-0.574c-1.581,3.088-2.516,4.813-2.516,4.813v0.071c-1.222,2.299-2.587,4.382-3.233,4.382     c-0.432,0-1.365-6.034,0.216-14.298c3.376-17.389,11.352-44.404,11.28-45.34c-0.072-0.503,1.508-5.173-5.246-7.689     c-6.538-2.371-8.91,1.582-9.484,1.582s-1.006,1.438-1.006,1.438s7.258-30.467-13.94-30.467     c-13.221,0-31.615,14.516-40.668,27.665c-5.677,3.09-17.965,9.772-30.898,16.885c-4.958,2.731-10.06,5.532-14.874,8.192     c-0.359-0.361-0.647-0.72-1.006-1.079c-25.724-27.447-73.22-46.848-71.207-83.711c0.718-13.437,5.389-48.716,91.327-91.542     c70.418-35.065,126.751-25.436,136.453-4.024c13.938,30.539-30.109,87.376-103.256,95.566     c-27.88,3.09-42.537-7.688-46.202-11.711c-3.809-4.239-4.384-4.456-5.821-3.665c-2.372,1.293-0.862,5.03,0,7.257     c2.156,5.676,11.137,15.736,26.443,20.766c13.435,4.383,46.13,6.827,85.649-8.479c44.406-17.102,78.969-64.742,68.837-104.62     C303.809,85.2,236.625,71.906,173.034,94.468c-37.867,13.437-78.824,34.563-108.285,62.082     c-34.993,32.767-40.597,61.292-38.299,73.221c8.192,42.321,66.537,69.914,89.89,90.32c-1.15,0.647-2.228,1.222-3.233,1.797     c-11.712,5.819-56.19,29.1-67.328,53.677c-12.573,27.879,2.083,47.853,11.712,50.585c30.035,8.334,60.789-6.683,77.316-31.33     c16.525-24.645,14.514-56.836,6.898-71.495c-0.073-0.215-0.216-0.357-0.287-0.575c3.017-1.795,6.106-3.592,9.197-5.388     c5.963-3.521,11.784-6.756,16.885-9.556c-2.875,7.761-4.958,17.098-6.036,30.609c-1.293,15.807,5.246,36.286,13.725,44.334     c3.735,3.521,8.262,3.594,11.065,3.594c9.916,0,14.37-8.193,19.328-17.965c6.108-11.93,11.497-25.798,11.497-25.798     s-6.754,37.511,11.712,37.511c6.754,0,13.51-8.695,16.526-13.15v0.071c0,0,0.145-0.286,0.504-0.86     c0.718-1.079,1.077-1.726,1.077-1.726v-0.217c2.73-4.67,8.695-15.377,17.675-33.052c11.642-22.851,22.778-51.378,22.778-51.378     s1.006,6.972,4.457,18.54c2.011,6.826,6.25,14.299,9.627,21.557c-2.729,3.736-4.383,5.892-4.383,5.892s0,0.071,0.07,0.143     c-2.155,2.876-4.597,5.966-7.112,8.984c-9.198,10.921-20.12,23.425-21.556,27.017c-1.726,4.24-1.294,7.399,2.012,9.844     c2.442,1.869,6.754,2.155,11.28,1.797c8.264-0.577,14.084-2.587,16.886-3.883c4.454-1.578,9.629-4.095,14.515-7.615     c8.982-6.609,14.444-16.094,13.939-28.597c-0.287-6.898-2.516-13.797-5.246-20.262c0.791-1.151,1.654-2.374,2.444-3.593     c14.229-20.769,25.222-43.544,25.222-43.544s1.006,6.968,4.454,18.537c1.725,5.821,5.102,12.216,8.191,18.466     c-13.365,10.851-21.627,23.427-24.502,31.688c-5.318,15.306-1.15,22.202,6.682,23.786c3.521,0.718,8.551-0.936,12.288-2.517     c4.67-1.581,10.275-4.096,15.52-7.976c8.982-6.609,17.677-15.88,17.103-28.454c-0.217-5.677-1.797-11.353-3.881-16.814     c11.28-4.741,25.941-7.33,44.622-5.173c40.023,4.67,47.854,29.675,46.345,40.093c-1.507,10.492-9.914,16.241-12.717,17.965     c-2.804,1.725-3.665,2.372-3.448,3.665c0.358,1.868,1.651,1.797,4.022,1.364c3.307-0.574,20.982-8.479,21.771-27.808     C487.108,308.45,463.613,281.578,422.009,281.793L422.009,281.793z M113.538,385.766c-13.22,14.443-31.759,19.904-39.734,15.305     c-8.551-4.956-5.174-26.226,11.137-41.604c9.916-9.34,22.706-17.962,31.185-23.279c1.94-1.149,4.743-2.874,8.192-4.958     c0.575-0.357,0.862-0.502,0.862-0.502c0.646-0.433,1.365-0.791,2.084-1.223C133.226,351.349,127.478,370.605,113.538,385.766     L113.538,385.766z M210.111,320.091c-4.599,11.28-14.3,40.023-20.19,38.514c-5.03-1.294-8.121-23.209-1.006-44.764     c3.592-10.851,11.208-23.784,15.736-28.813c7.256-8.121,15.232-10.708,17.101-7.474     C224.266,281.793,212.984,313.05,210.111,320.091L210.111,320.091z M289.868,358.176c-1.939,1.005-3.736,1.651-4.598,1.148     c-0.646-0.359,0.791-1.725,0.791-1.725s9.986-10.706,13.939-15.594c2.299-2.873,4.957-6.251,7.832-9.986     c0,0.357,0.07,0.719,0.07,1.148C307.833,346.031,295.474,354.727,289.868,358.176z M351.377,344.163     c-1.437-1.006-1.223-4.383,3.592-14.875c1.869-4.096,6.181-10.993,13.652-17.604c0.863,2.73,1.365,5.316,1.365,7.759     C369.913,335.611,358.346,341.647,351.377,344.163L351.377,344.163z" fill="#CF649A"/>
    </symbol>
    <symbol id="js" viewBox="0 0 512 512" xml:space="preserve" xmlns="http://www.w3.org/2000/svg" xmlns:xlink="http://www.w3.org/1999/xlink">
        <rect height="459.998" style="fill:#F0DB4F;" width="459.996" x="26.002" y="26.001"/>
        <path d="M276.331,384.759c0,44.767-26.286,65.2-64.586,65.2c-34.601,0-54.623-17.865-64.892-39.529    l35.218-21.255c6.777,12.013,12.938,22.177,27.826,22.177c14.169,0,23.207-5.544,23.207-27.208V237.21h43.227V384.759    L276.331,384.759z" fill = "#323330"/>
        <path d="M378.598,449.959c-40.147,0-66.124-19.099-78.754-44.151l35.219-20.332    c9.241,15.095,21.356,26.286,42.611,26.286c17.866,0,29.364-8.932,29.364-21.355c0-14.787-11.704-20.021-31.52-28.75l-10.781-4.62    c-31.214-13.246-51.853-29.983-51.853-65.2c0-32.447,24.745-57.09,63.248-57.09c27.518,0,47.232,9.549,61.402,34.603    l-33.679,21.562c-7.392-13.246-15.401-18.481-27.825-18.481c-12.63,0-20.639,8.01-20.639,18.481    c0,12.938,8.009,18.176,26.594,26.285l10.78,4.621c36.759,15.71,57.397,31.832,57.397,67.974    C450.164,428.602,419.565,449.959,378.598,449.959L378.598,449.959z" fill="#323330"/>
    </symbol>
    <symbol id="html" viewBox="0 0 32 32" xml:space="preserve" xmlns="http://www.w3.org/2000/svg" xmlns:xlink="http://www.w3.org/1999/xlink">
        <polygon fill="#E44D26" points="27.377,28.889 16.001,32 4.625,28.889 2,0 30.002,0  "/>
        <polygon fill="#FF6C39" points="16,2 16,29.75 25.232,27.008 27.688,2  "/>
        <polygon fill="#FFFFFF" points="24.363,6 7.607,6 8,10 8.619,17 19.503,17 19.148,20.984 16,21.99 12.857,20.984 12.648,19    8.803,19 9.262,23.987 16,25.99 22.728,23.986 23.718,13 12.252,13 12.002,10 24,10  "/>
    </symbol>
    <symbol id="github"  viewBox="0 0 512 512" fill="#000"  xml:space="preserve" xmlns="http://www.w3.org/2000/svg" xmlns:xlink="http://www.w3.org/1999/xlink">
        <path  d="M256,32C132.3,32,32,134.8,32,261.7c0,101.5,64.2,187.5,153.2,217.9c11.2,2.1,15.3-5,15.3-11.1   c0-5.5-0.2-19.9-0.3-39.1c-62.3,13.9-75.5-30.8-75.5-30.8c-10.2-26.5-24.9-33.6-24.9-33.6c-20.3-14.3,1.5-14,1.5-14   c22.5,1.6,34.3,23.7,34.3,23.7c20,35.1,52.4,25,65.2,19.1c2-14.8,7.8-25,14.2-30.7c-49.7-5.8-102-25.5-102-113.5   c0-25.1,8.7-45.6,23-61.6c-2.3-5.8-10-29.2,2.2-60.8c0,0,18.8-6.2,61.6,23.5c17.9-5.1,37-7.6,56.1-7.7c19,0.1,38.2,2.6,56.1,7.7   c42.8-29.7,61.5-23.5,61.5-23.5c12.2,31.6,4.5,55,2.2,60.8c14.3,16.1,23,36.6,23,61.6c0,88.2-52.4,107.6-102.3,113.3   c8,7.1,15.2,21.1,15.2,42.5c0,30.7-0.3,55.5-0.3,63c0,6.1,4,13.3,15.4,11C415.9,449.1,480,363.1,480,261.7   C480,134.8,379.7,32,256,32z"/>
    </symbol>
    <symbol id="handlebars" viewBox="0 -194 512 512"  xmlns="http://www.w3.org/2000/svg" xmlns:xlink="http://www.w3.org/1999/xlink" preserveAspectRatio="xMidYMid">
        <g>
            <path d="M188.431907,0.000869242479 C206.231043,-0.0766628844 224.484295,5.02938147 238.318221,16.5373642 C245.406862,22.2747418 251.133155,29.4741535 255.99552,37.138758 C264.745563,22.9946828 277.527268,10.9772032 293.288421,5.18444573 C312.49421,-2.02604207 334.203174,-1.52762126 353.375733,5.5388783 C370.122648,11.6528403 384.765125,22.3079698 398.045251,34.026397 C408.434541,43.1973399 418.048512,53.2322123 428.74793,62.0597988 C434.385615,66.6341943 440.444188,70.9206133 447.377766,73.290881 C456.593,76.4364703 467.491785,73.4680974 474.082007,66.3683698 C480.184885,59.722759 479.808301,48.236928 473.085167,42.1672703 C468.80983,38.4789562 461.499669,39.2210495 458.47592,44.1388014 C455.828755,48.0375598 457.312941,52.8999318 459.384153,56.676854 C453.87938,52.6562595 448.363531,47.0517942 448.385682,39.7416222 C447.244853,31.2906203 453.513871,23.8364603 461.0234,20.8791633 C475.676952,15.0199498 494.052039,20.070614 503.300502,32.9741751 C512.194532,45.0138069 512.903395,60.8414367 511.352755,75.1848802 C509.48091,88.8083825 501.86062,101.523651 490.563098,109.409776 C474.702264,120.729467 454.599318,124.240565 435.471064,123.996892 C417.084899,123.498471 398.887027,119.344964 381.852136,112.477833 C353.364657,101.025231 326.704719,85.1976005 297.286857,76.0488097 C287.528899,72.2608114 277.150685,70.211748 266.717091,69.5804151 C258.41009,69.525035 250.535051,69.1373743 242.693241,69.6690232 C233.123576,70.5883328 223.609289,72.548788 214.648804,76.0598857 C184.732521,85.363741 157.673848,101.590107 128.643646,113.064862 C104.132452,122.601314 76.9740946,127.031721 50.9565651,121.737384 C36.4026981,118.791163 21.9152869,112.355997 12.0908729,100.892318 C3.68418708,91.1454224 -0.347477777,78.097873 0.0512583107,65.3161482 C-0.413933793,53.2543644 2.23323077,40.4394114 10.2079525,31.046948 C17.628874,22.1418295 29.5798807,17.6228141 41.054619,18.6196557 C48.4423125,18.9630123 55.9296902,22.1861335 60.4930033,28.1339552 C64.081628,32.8412629 64.303148,39.2875055 62.7303556,44.7922865 C60.8142073,49.7432667 56.8600744,53.6087969 52.5625854,56.5771698 C54.7556339,52.8777798 56.0847543,47.9932557 53.4929697,44.1277254 C50.303081,38.9773771 42.4501952,38.4568041 38.2966944,42.687843 C33.1795813,47.9489517 32.1052091,56.5439418 35.5387698,62.9901843 C39.2603066,69.7465553 46.9581283,73.6010096 54.4122778,74.3874068 C65.6876484,75.3620965 75.4677584,68.3731291 83.7415321,61.5946061 C100.865032,46.8524259 116.282827,29.9836504 135.278171,17.5120539 C150.939639,7.0119887 169.392259,-0.0877389026 188.431907,0.000869242479 L188.431907,0.000869242479 L188.431907,0.000869242479 Z" fill="#423426">
</path>
        </g>
    </symbol>
    <symbol id="figma"  viewBox="0 0 3000 3000" xml:space="preserve" xmlns="http://www.w3.org/2000/svg" xmlns:xlink="http://www.w3.org/1999/xlink">
        <path  d="M1083.333374,2750c230,0,416.666626-186.666748,416.666626-416.666748v-416.666626h-416.666626  c-230.000061,0-416.666687,186.666626-416.666687,416.666626S853.333313,2750,1083.333374,2750z" fill="#0ACF83"/>
        <path  d="M666.666687,1500c0-230,186.666626-416.666748,416.666687-416.666748H1500v833.333374  h-416.666626C853.333313,1916.666626,666.666687,1730,666.666687,1500z" fill="#A259FF"/>
        <path  d="M666.666687,666.666626C666.666687,436.666656,853.333313,250,1083.333374,250H1500  v833.333252h-416.666626C853.333313,1083.333252,666.666687,896.666626,666.666687,666.666626z" fill="#F24E1E"/>
        <path  d="M1500,250h416.666626c230.000122,0,416.666626,186.666656,416.666626,416.666626  s-186.666504,416.666626-416.666626,416.666626H1500V250z" fill="#FF7262"/>
        <path  d="M2333.333252,1500c0,230-186.666504,416.666626-416.666626,416.666626S1500,1730,1500,1500  s186.666626-416.666748,416.666626-416.666748S2333.333252,1270,2333.333252,1500z" fill="#1ABCFE"/>
    </symbol>
</svg>